<?xml version="1.0" encoding="UTF-8"?>
<svg width="600px" height="600px" viewBox="0 0 600 600" version="1.1" xmlns="http://www.w3.org/2000/svg" xmlns:xlink="http://www.w3.org/1999/xlink">
    <title>logo</title>
    <g id="Page-1" stroke="none" stroke-width="1" fill="none" fill-rule="evenodd">
        <g id="logo">
            <path d="M320,11.5470054 L539.807621,138.452995 C552.183664,145.598306 559.807621,158.803387 559.807621,173.094011 L559.807621,426.905989 C559.807621,441.196613 552.183664,454.401694 539.807621,461.547005 L320,588.452995 C307.623957,595.598306 292.376043,595.598306 280,588.452995 L60.1923789,461.547005 C47.8163358,454.401694 40.1923789,441.196613 40.1923789,426.905989 L40.1923789,173.094011 C40.1923789,158.803387 47.8163358,145.598306 60.1923789,138.452995 L280,11.5470054 C292.376043,4.40169359 307.623957,4.40169359 320,11.5470054 Z" id="Polygon" fill="#1C3339"></path>
            <path d="M143.28594,205.619632 L148.166308,189.91038 L126.091216,189.91038 L134.83122,161.777472 L156.906312,161.777472 L161.786679,146.068221 L139.711587,146.068221 L145.198013,128.408147 L129.488762,128.408147 L110.126782,190.731779 C108.872134,194.770323 109.259281,198.261268 111.288222,201.204613 C113.317163,204.147959 116.385131,205.619632 120.492125,205.619632 L143.28594,205.619632 Z M187.06359,142.371926 L191.975855,126.56 L176.266604,126.56 L171.354339,142.371926 L187.06359,142.371926 Z M167.414529,205.619632 L185.915268,146.068221 L170.206017,146.068221 L151.705278,205.619632 L167.414529,205.619632 Z M234.769229,205.619632 L259.330555,126.56 L243.621303,126.56 L237.560716,146.068221 L207.682336,146.068221 C203.575342,146.068221 199.610083,147.539894 195.786558,150.483239 C191.963033,153.426585 189.423946,156.91753 188.169298,160.956074 L178.918929,190.731779 C177.664281,194.770323 178.034315,198.261268 180.029032,201.204613 C182.023748,204.147959 185.074603,205.619632 189.181597,205.619632 L234.769229,205.619632 Z M194.986038,189.91038 L203.726042,161.777472 L232.680349,161.777472 L223.940345,189.91038 L194.986038,189.91038 Z M281.628076,226.976 C285.73507,226.976 289.695013,225.52144 293.507906,222.612319 C297.320798,219.703198 299.865201,216.195141 301.141114,212.088147 L321.58762,146.273571 L305.878368,146.273571 L292.321792,189.91038 L263.264811,189.91038 L276.821387,146.273571 L261.112135,146.273571 L247.300377,190.731779 C246.045729,194.770323 246.432876,198.261268 248.461817,201.204613 C250.490758,204.147959 253.558726,205.619632 257.66572,205.619632 L287.441425,205.619632 L285.718943,211.164074 L250.398795,211.164074 L245.48653,226.976 L281.628076,226.976 Z M329.948812,205.619632 L343.569183,161.777472 L363.282754,161.777472 L349.662382,205.619632 L365.474309,205.619632 L379.09468,161.777472 L398.808251,161.777472 L385.187879,205.619632 L400.794456,205.619632 L414.67001,160.956074 C415.924658,156.91753 415.554624,153.426585 413.559907,150.483239 C411.565191,147.539894 408.514336,146.068221 404.407342,146.068221 L332.740299,146.068221 L314.23956,205.619632 L329.948812,205.619632 Z M446.062655,205.619632 L497.419345,146.068221 L479.348572,146.068221 L445.608866,185.598037 L436.430486,146.068221 L418.359713,146.068221 L432.61225,205.619632 L446.062655,205.619632 Z" id="tidymv" fill="#FFFFFF" fill-rule="nonzero"></path>
            <path d="M100.119014,424.119531 C161.416233,332.655994 206.074532,282.550769 234.09391,273.803857 C276.122976,260.683487 301.580929,340.177507 340.87548,348.961694 C380.17003,357.745881 397.29596,304.840891 449.691073,322 C484.621148,333.439406 503.571462,360.511594 506.542014,403.216564" id="Path-2" stroke="#E02020"></path>
            <path d="M100.119014,424.119531 C161.416233,332.655994 206.074532,282.550769 234.09391,273.803857 C276.122976,260.683487 301.580929,340.177507 340.87548,348.961694 C380.17003,357.745881 397.29596,304.840891 449.691073,322 C484.621148,333.439406 503.571462,360.511594 506.542014,403.216564" id="Path-2" stroke-opacity="0.4" stroke="#E02020" stroke-width="30"></path>
            <path d="M100.119014,294.702341 C141.676981,347.549798 192.725178,385.315257 253.263603,407.998717 C313.802028,430.682178 398.228165,443.678308 506.542014,446.987108" id="Path-3" stroke="#0091FF" stroke-dasharray="3,3"></path>
            <path d="M100.119014,294.702341 C141.676981,347.549798 192.725178,385.315257 253.263603,407.998717 C313.802028,430.682178 398.228165,443.678308 506.542014,446.987108" id="Path-3" stroke-opacity="0.4" stroke="#0091FF" stroke-width="30"></path>
        </g>
    </g>
</svg>